<svg width="52" height="32" viewBox="0 0 52 32" fill="none" xmlns="http://www.w3.org/2000/svg">
<path d="M50.9134 5.00692C50.3154 3.03608 48.5533 1.48392 46.3161 0.957167C42.2609 0 26 0 26 0C26 0 9.73923 0 5.68394 0.957167C3.44668 1.484 1.68463 3.03608 1.08659 5.00692C0 8.57917 0 16.0323 0 16.0323C0 16.0323 0 23.4855 1.08659 27.0578C1.68463 29.0286 3.44668 30.5161 5.68394 31.0428C9.73923 32 26 32 26 32C26 32 42.2608 32 46.3161 31.0428C48.5533 30.5161 50.3154 29.0286 50.9134 27.0578C52 23.4855 52 16.0323 52 16.0323C52 16.0323 52 8.57917 50.9134 5.00692V5.00692ZM20.6818 22.7993V9.26542L34.2726 16.0325L20.6818 22.7993V22.7993Z" fill="#333333"/>
</svg>
