<svg width="60" height="60" viewBox="0 0 60 60" fill="none" xmlns="http://www.w3.org/2000/svg">
<path fill-rule="evenodd" clip-rule="evenodd" d="M12.2362 35.5147C12.1673 35.4265 11.5567 34.6186 10.8795 33.7194C7.79235 29.6206 6.7475 28.2235 6.7475 28.1943C6.7475 28.1413 12.5462 16.9604 12.579 16.9501C12.6057 16.9416 17.2709 19.6005 17.3281 19.6566C17.3398 19.6682 17.5661 20.5696 17.8309 21.6597L18.3123 23.6418L20.0321 24.9889L21.7519 26.336L23.544 29.7756C24.5296 31.6674 25.3359 33.2289 25.3358 33.2457C25.3358 33.2625 23.3903 33.6392 21.0129 34.0827C18.6355 34.5262 15.7427 35.0659 14.5845 35.2821C13.4263 35.4983 12.4524 35.6752 12.4202 35.6752C12.3871 35.6752 12.3071 35.6054 12.2362 35.5147V35.5147Z" fill="#FAD100"/>
<path fill-rule="evenodd" clip-rule="evenodd" d="M9.31629 19.3821C9.12297 19.0068 6.94772 14.8068 4.48241 10.0487C2.01708 5.29064 0 1.3848 0 1.36906C0 1.34467 9.11284 0.00225659 9.29402 0C9.33374 0 10.8963 1.22855 13.3235 3.16951L17.2882 6.33983L22.2408 4.79513C24.9647 3.94552 27.1978 3.25455 27.2032 3.25961C27.2202 3.27547 17.0488 18.303 17.0147 18.3123C16.9969 18.3172 15.9244 17.6844 14.6315 16.9061C13.3386 16.1279 12.274 15.4911 12.2659 15.4911C12.2576 15.4911 11.6879 16.5146 10.9996 17.7655C10.3113 19.0165 9.73008 20.0455 9.70798 20.0522C9.68282 20.0599 9.53605 19.8088 9.31629 19.3821V19.3821Z" fill="#FAD100"/>
<path fill-rule="evenodd" clip-rule="evenodd" d="M19.365 44.8352C18.0507 37.0095 17.8614 35.8404 17.9052 35.8213C17.9667 35.7945 25.4517 34.2366 25.5553 34.229C25.6222 34.2241 25.7441 34.4481 26.8656 36.6378C27.9933 38.8393 28.1035 39.0683 28.1172 39.2381L28.1323 39.4244L24.5297 46.6176C22.5483 50.5738 20.9154 53.8145 20.9011 53.8189C20.8868 53.8234 20.1955 49.7808 19.365 44.8352H19.365Z" fill="#FAD100"/>
<path fill-rule="evenodd" clip-rule="evenodd" d="M21.6698 54.3647C21.6698 54.3171 28.0639 41.5872 28.0923 41.5783C28.1146 41.5713 28.1253 43.2569 28.1253 46.7758V51.9836L24.9263 53.1727C23.1668 53.8268 21.7143 54.3665 21.6985 54.3721C21.6827 54.3776 21.6698 54.3747 21.6698 54.3647L21.6698 54.3647Z" fill="#FAD100"/>
<path fill-rule="evenodd" clip-rule="evenodd" d="M26.6573 59.8627L25.3352 59.732L24.2243 59.1422C23.6133 58.8178 22.9708 58.4759 22.7966 58.3824L22.4799 58.2123L21.6704 57.0374C21.2252 56.3911 20.8641 55.8597 20.868 55.8564C20.8718 55.853 22.437 55.2702 24.3461 54.5609C26.2552 53.8516 27.8865 53.2453 27.9712 53.2135L28.1253 53.1557V56.5779V60L28.0523 59.9965C28.0122 59.9948 27.3844 59.9344 26.6573 59.8626V59.8627ZM27.0685 58.2811C27.0767 58.2433 27.0991 57.9717 27.1183 57.6775C27.1374 57.3834 27.1614 57.0656 27.1715 56.9712L27.1899 56.7997L26.5627 56.4397L25.9356 56.0797L24.8164 55.8424C24.2009 55.7118 23.696 55.6072 23.6944 55.6099C23.6858 55.6246 24.4159 58.2577 24.433 58.2739C24.4556 58.2951 25.701 58.3375 26.527 58.345C27.0488 58.3498 27.0537 58.3493 27.0685 58.2811H27.0685Z" fill="#FAD100"/>
<path fill-rule="evenodd" clip-rule="evenodd" d="M27.9622 36.8805C27.914 36.7794 26.6774 34.2853 25.2141 31.3379L22.5537 25.979L22.429 23.7102C22.3605 22.4623 22.2903 21.4162 22.2732 21.3854C22.2561 21.3547 21.4384 20.9652 20.4562 20.5198C19.474 20.0743 18.6648 19.6911 18.6581 19.668C18.6414 19.6111 28.0114 5.76434 28.0815 5.74232C28.1252 5.7286 28.1373 9.11985 28.1373 21.3945C28.1373 31.2993 28.1212 37.0641 28.0935 37.0641C28.0695 37.0641 28.0104 36.9815 27.9622 36.8805H27.9622Z" fill="#FAD100"/>
<path fill-rule="evenodd" clip-rule="evenodd" d="M16.1804 49.3033C14.0572 47.5507 12.2784 46.0788 12.2275 46.0324L12.135 45.9479L11.5086 42.086C11.164 39.9619 10.8884 38.2181 10.8961 38.2108C10.9038 38.2035 10.9268 38.2134 10.9474 38.2327C10.9679 38.252 11.8048 39.3925 12.8073 40.767L14.6299 43.2662L16.6414 44.3969C17.7477 45.0188 18.6861 45.5488 18.7267 45.5748C18.7954 45.6187 18.8436 45.8549 19.4287 49.0126C19.7743 50.8775 20.0534 52.4228 20.0489 52.4465C20.0443 52.4712 18.3867 51.1244 16.1804 49.3033V49.3033Z" fill="#FAD100"/>
<path fill-rule="evenodd" clip-rule="evenodd" d="M47.7638 35.5147C47.8328 35.4265 48.4433 34.6186 49.1206 33.7194C52.2077 29.6206 53.2525 28.2235 53.2525 28.1943C53.2525 28.1413 47.4538 16.9604 47.421 16.9501C47.3944 16.9416 42.7291 19.6005 42.672 19.6566C42.6602 19.6682 42.4339 20.5696 42.1691 21.6597L41.6877 23.6418L39.9679 24.9889L38.2481 26.336L36.456 29.7756C35.4704 31.6674 34.6641 33.2289 34.6642 33.2457C34.6642 33.2625 36.6097 33.6392 38.9871 34.0827C41.3645 34.5262 44.2573 35.0659 45.4155 35.2821C46.5737 35.4983 47.5476 35.6752 47.5798 35.6752C47.6129 35.6752 47.6929 35.6054 47.7638 35.5147V35.5147Z" fill="#FAD100"/>
<path fill-rule="evenodd" clip-rule="evenodd" d="M50.6837 19.3821C50.877 19.0068 53.0523 14.8068 55.5176 10.0487C57.9829 5.29064 60 1.3848 60 1.36906C60 1.34467 50.8871 0.00225659 50.706 0C50.6662 0 49.1037 1.22855 46.6764 3.16951L42.7118 6.33983L37.7592 4.79513C35.0352 3.94552 32.8022 3.25455 32.7968 3.25961C32.7798 3.27547 42.9512 18.303 42.9853 18.3123C43.0031 18.3172 44.0756 17.6844 45.3685 16.9061C46.6614 16.1279 47.7259 15.4911 47.7341 15.4911C47.7423 15.4911 48.3121 16.5146 49.0004 17.7655C49.6887 19.0165 50.2699 20.0455 50.292 20.0522C50.3172 20.0599 50.4639 19.8088 50.6837 19.3821V19.3821Z" fill="#FAD100"/>
<path fill-rule="evenodd" clip-rule="evenodd" d="M40.635 44.8352C41.9492 37.0095 42.1385 35.8404 42.0948 35.8213C42.0333 35.7945 34.5482 34.2366 34.4447 34.229C34.3777 34.2241 34.2559 34.4481 33.1343 36.6378C32.0067 38.8393 31.8965 39.0683 31.8827 39.2381L31.8677 39.4244L35.4702 46.6176C37.4516 50.5738 39.0845 53.8145 39.0989 53.8189C39.1132 53.8234 39.8044 49.7808 40.635 44.8352H40.635Z" fill="#FAD100"/>
<path fill-rule="evenodd" clip-rule="evenodd" d="M38.3302 54.3647C38.3302 54.3171 31.9361 41.5872 31.9076 41.5783C31.8853 41.5713 31.8746 43.2569 31.8746 46.7758V51.9836L35.0737 53.1727C36.8332 53.8268 38.2856 54.3665 38.3015 54.3721C38.3172 54.3776 38.3301 54.3747 38.3301 54.3647L38.3302 54.3647Z" fill="#FAD100"/>
<path fill-rule="evenodd" clip-rule="evenodd" d="M33.3427 59.8627L34.6647 59.732L35.7757 59.1422C36.3867 58.8178 37.0291 58.4759 37.2033 58.3824L37.52 58.2123L38.3295 57.0374C38.7748 56.3911 39.1359 55.8597 39.132 55.8564C39.1283 55.853 37.563 55.2702 35.6539 54.5609C33.7448 53.8516 32.1135 53.2453 32.0287 53.2135L31.8746 53.1557V56.5779V60L31.9476 59.9965C31.9878 59.9948 32.6155 59.9344 33.3427 59.8626V59.8627ZM32.9314 58.2811C32.9232 58.2433 32.9008 57.9717 32.8817 57.6775C32.8625 57.3834 32.8386 57.0656 32.8285 56.9712L32.8101 56.7997L33.4372 56.4397L34.0644 56.0797L35.1835 55.8424C35.7991 55.7118 36.304 55.6072 36.3056 55.6099C36.3142 55.6246 35.5841 58.2577 35.567 58.2739C35.5444 58.2951 34.2989 58.3375 33.4729 58.345C32.9511 58.3498 32.9463 58.3493 32.9315 58.2811H32.9314Z" fill="#FAD100"/>
<path fill-rule="evenodd" clip-rule="evenodd" d="M32.0378 36.8805C32.086 36.7794 33.3226 34.2853 34.7859 31.3379L37.4463 25.979L37.571 23.7102C37.6395 22.4623 37.7096 21.4162 37.7268 21.3854C37.7439 21.3547 38.5615 20.9652 39.5438 20.5198C40.526 20.0743 41.3352 19.6911 41.3419 19.668C41.3586 19.6111 31.9886 5.76434 31.9185 5.74232C31.8748 5.7286 31.8627 9.11985 31.8627 21.3945C31.8627 31.2993 31.8788 37.0641 31.9064 37.0641C31.9305 37.0641 31.9896 36.9815 32.0378 36.8805H32.0378Z" fill="#FAD100"/>
<path fill-rule="evenodd" clip-rule="evenodd" d="M43.8196 49.3033C45.9428 47.5507 47.7216 46.0788 47.7725 46.0324L47.865 45.9479L48.4915 42.086C48.836 39.9619 49.1116 38.2181 49.1039 38.2108C49.0962 38.2035 49.0732 38.2134 49.0527 38.2327C49.0321 38.252 48.1952 39.3925 47.1927 40.767L45.3701 43.2662L43.3586 44.3969C42.2523 45.0188 41.3139 45.5488 41.2733 45.5748C41.2046 45.6187 41.1564 45.8549 40.5713 49.0126C40.2257 50.8775 39.9466 52.4228 39.9511 52.4465C39.9557 52.4712 41.6133 51.1244 43.8196 49.3033V49.3033Z" fill="#FAD100"/>
</svg>
