<svg width="108" height="126" viewBox="0 0 108 126" fill="none" xmlns="http://www.w3.org/2000/svg">
<path d="M7.23633 119.986C6.98633 120.342 6.59375 120.619 6.05859 120.818C5.52734 121.018 4.93164 121.117 4.27148 121.117C3.60352 121.117 3.00977 120.957 2.49023 120.637C1.9707 120.316 1.56836 119.863 1.2832 119.277C0.998047 118.691 0.853516 118.02 0.849609 117.262V116.184C0.849609 115 1.14844 114.066 1.74609 113.383C2.34375 112.695 3.14648 112.352 4.1543 112.352C5.0332 112.352 5.74023 112.576 6.27539 113.025C6.81055 113.471 7.12891 114.086 7.23047 114.871H6.50977C6.4043 114.246 6.14844 113.773 5.74219 113.453C5.33984 113.129 4.8125 112.967 4.16016 112.967C3.36328 112.967 2.73242 113.25 2.26758 113.816C1.80273 114.383 1.57031 115.182 1.57031 116.213V117.221C1.57031 117.869 1.67969 118.443 1.89844 118.943C2.12109 119.439 2.4375 119.824 2.84766 120.098C3.26172 120.371 3.73633 120.508 4.27148 120.508C4.89258 120.508 5.42578 120.41 5.87109 120.215C6.16016 120.086 6.375 119.936 6.51562 119.764V117.561H4.22461V116.951H7.23633V119.986ZM13.9922 116.91H10.002V120.391H14.5898V121H9.28125V112.469H14.5605V113.084H10.002V116.301H13.9922V116.91ZM22.4648 121H21.7441L16.8398 113.699V121H16.1133V112.469H16.8398L21.75 119.775V112.469H22.4648V121ZM30.2461 113.084H27.3223V121H26.6016V113.084H23.6836V112.469H30.2461V113.084ZM36.3398 116.91H32.3496V120.391H36.9375V121H31.6289V112.469H36.9082V113.084H32.3496V116.301H36.3398V116.91ZM41.3789 121V112.469H43.7637C44.4629 112.469 45.0898 112.629 45.6445 112.949C46.1992 113.266 46.6309 113.721 46.9395 114.314C47.252 114.908 47.4082 115.584 47.4082 116.342V117.127C47.4082 117.889 47.2539 118.564 46.9453 119.154C46.6367 119.744 46.2012 120.199 45.6387 120.52C45.0801 120.84 44.4375 121 43.7109 121H41.3789ZM42.0996 113.084V120.391H43.7168C44.6152 120.391 45.3359 120.094 45.8789 119.5C46.4219 118.902 46.6934 118.096 46.6934 117.08V116.33C46.6934 115.35 46.4258 114.564 45.8906 113.975C45.3555 113.385 44.6504 113.088 43.7754 113.084H42.0996ZM50.1211 121H49.4004V112.469H50.1211V121ZM60.9141 113.084H57.9902V121H57.2695V113.084H54.3516V112.469H60.9141V113.084ZM68.4375 117.197C68.4375 117.982 68.3008 118.672 68.0273 119.266C67.7578 119.859 67.3711 120.316 66.8672 120.637C66.3633 120.957 65.7812 121.117 65.1211 121.117C64.125 121.117 63.3203 120.762 62.707 120.051C62.0938 119.336 61.7871 118.373 61.7871 117.162V116.283C61.7871 115.506 61.9238 114.818 62.1973 114.221C62.4746 113.619 62.8652 113.158 63.3691 112.838C63.873 112.514 64.4531 112.352 65.1094 112.352C65.7656 112.352 66.3438 112.51 66.8438 112.826C67.3477 113.143 67.7363 113.59 68.0098 114.168C68.2832 114.746 68.4258 115.416 68.4375 116.178V117.197ZM67.7168 116.271C67.7168 115.244 67.4844 114.439 67.0195 113.857C66.5547 113.275 65.918 112.984 65.1094 112.984C64.3164 112.984 63.6836 113.277 63.2109 113.863C62.7422 114.445 62.5078 115.26 62.5078 116.307V117.197C62.5078 118.209 62.7422 119.012 63.2109 119.605C63.6797 120.195 64.3164 120.49 65.1211 120.49C65.9375 120.49 66.5742 120.199 67.0312 119.617C67.4883 119.031 67.7168 118.217 67.7168 117.174V116.271ZM75.082 118.902C75.082 118.43 74.916 118.057 74.584 117.783C74.252 117.506 73.6445 117.244 72.7617 116.998C71.8789 116.748 71.2344 116.477 70.8281 116.184C70.25 115.77 69.9609 115.227 69.9609 114.555C69.9609 113.902 70.2285 113.373 70.7637 112.967C71.3027 112.557 71.9902 112.352 72.8262 112.352C73.3926 112.352 73.8984 112.461 74.3438 112.68C74.793 112.898 75.1406 113.203 75.3867 113.594C75.6328 113.984 75.7559 114.42 75.7559 114.9H75.0293C75.0293 114.318 74.8301 113.852 74.4316 113.5C74.0332 113.145 73.498 112.967 72.8262 112.967C72.1738 112.967 71.6543 113.113 71.2676 113.406C70.8809 113.695 70.6875 114.074 70.6875 114.543C70.6875 114.977 70.8613 115.33 71.209 115.604C71.5566 115.877 72.1133 116.119 72.8789 116.33C73.6445 116.537 74.2246 116.754 74.6191 116.98C75.0137 117.203 75.3105 117.471 75.5098 117.783C75.709 118.096 75.8086 118.465 75.8086 118.891C75.8086 119.562 75.5391 120.102 75 120.508C74.4648 120.914 73.7578 121.117 72.8789 121.117C72.2773 121.117 71.7246 121.01 71.2207 120.795C70.7207 120.58 70.3398 120.279 70.0781 119.893C69.8203 119.506 69.6914 119.062 69.6914 118.562H70.4121C70.4121 119.164 70.6367 119.639 71.0859 119.986C71.5352 120.334 72.1328 120.508 72.8789 120.508C73.543 120.508 74.0762 120.361 74.4785 120.068C74.8809 119.775 75.082 119.387 75.082 118.902ZM83.4082 118.34C83.3105 119.238 82.9883 119.926 82.4414 120.402C81.8984 120.879 81.1738 121.117 80.2676 121.117C79.6348 121.117 79.0742 120.959 78.5859 120.643C78.1016 120.326 77.7266 119.879 77.4609 119.301C77.1953 118.719 77.0605 118.055 77.0566 117.309V116.201C77.0566 115.443 77.1895 114.771 77.4551 114.186C77.7207 113.6 78.1016 113.148 78.5977 112.832C79.0977 112.512 79.6719 112.352 80.3203 112.352C81.2344 112.352 81.9551 112.6 82.4824 113.096C83.0137 113.588 83.3223 114.27 83.4082 115.141H82.6816C82.502 113.691 81.7148 112.967 80.3203 112.967C79.5469 112.967 78.9297 113.256 78.4688 113.834C78.0117 114.412 77.7832 115.211 77.7832 116.23V117.273C77.7832 118.258 78.0059 119.043 78.4512 119.629C78.9004 120.215 79.5059 120.508 80.2676 120.508C81.0215 120.508 81.5898 120.328 81.9727 119.969C82.3555 119.605 82.5918 119.062 82.6816 118.34H83.4082ZM89.7656 118.609H85.8926L85.0137 121H84.2578L87.4863 112.469H88.1719L91.4004 121H90.6504L89.7656 118.609ZM86.1152 117.994H89.5371L87.8262 113.348L86.1152 117.994ZM99.0117 121H98.291L93.3867 113.699V121H92.6602V112.469H93.3867L98.2969 119.775V112.469H99.0117V121ZM105.891 118.609H102.018L101.139 121H100.383L103.611 112.469H104.297L107.525 121H106.775L105.891 118.609ZM102.24 117.994H105.662L103.951 113.348L102.24 117.994Z" fill="black"/>
<path fill-rule="evenodd" clip-rule="evenodd" d="M24.3937 59.1913C24.2787 59.0442 23.2611 57.6977 22.1324 56.1991C16.9872 49.3678 15.2458 47.0392 15.2458 46.9905C15.2458 46.9021 24.9102 28.2674 24.965 28.2502C25.0094 28.236 32.7848 32.6676 32.8801 32.7611C32.8996 32.7804 33.2768 34.2827 33.7181 36.0995L34.5205 39.403L37.3868 41.6482L40.2531 43.8934L43.2399 49.626C44.8826 52.779 46.2265 55.3816 46.2262 55.4096C46.2262 55.4376 42.9839 56.0653 39.0215 56.8045C35.0591 57.5437 30.2378 58.4433 28.3075 58.8035C26.3772 59.1639 24.754 59.4587 24.7003 59.4587C24.6451 59.4587 24.5118 59.3423 24.3937 59.1913V59.1913Z" fill="#FAD100"/>
<path fill-rule="evenodd" clip-rule="evenodd" d="M19.5271 32.3036C19.2049 31.6781 15.5795 24.678 11.4707 16.7478C7.36179 8.81773 4 2.308 4 2.28177C4 2.24111 19.1881 0.00376099 19.49 0C19.5562 0 22.1605 2.04759 26.2059 5.28251L32.8137 10.5664L41.068 7.99189C45.6079 6.57586 49.3297 5.42425 49.3387 5.43269C49.3669 5.45912 32.4146 30.5051 32.3578 30.5206C32.3281 30.5287 30.5407 29.474 28.3858 28.1769C26.2309 26.8798 24.4567 25.8185 24.4431 25.8185C24.4294 25.8185 23.4798 27.5243 22.3327 29.6092C21.1855 31.6942 20.2168 33.4092 20.18 33.4204C20.138 33.4331 19.8934 33.0147 19.5271 32.3036V32.3036Z" fill="#FAD100"/>
<path fill-rule="evenodd" clip-rule="evenodd" d="M36.275 74.7253C34.0846 61.6825 33.7691 59.734 33.842 59.7022C33.9445 59.6575 46.4196 57.0609 46.5922 57.0483C46.7038 57.0402 46.9068 57.4134 48.7761 61.063C50.6555 64.7322 50.8392 65.1139 50.8621 65.3969L50.8872 65.7073L44.8829 77.6959C41.5806 84.2897 38.8591 89.6907 38.8352 89.6982C38.8114 89.7057 37.6593 82.9679 36.275 74.7253H36.275Z" fill="#FAD100"/>
<path fill-rule="evenodd" clip-rule="evenodd" d="M40.1164 90.6079C40.1164 90.5285 50.7732 69.3121 50.8206 69.2972C50.8578 69.2855 50.8756 72.0948 50.8756 77.9596V86.6393L45.5439 88.6212C42.6114 89.7113 40.1906 90.6108 40.1643 90.6201C40.1379 90.6294 40.1164 90.6245 40.1164 90.6079L40.1164 90.6079Z" fill="#FAD100"/>
<path fill-rule="evenodd" clip-rule="evenodd" d="M48.4288 99.7712L46.2254 99.5534L44.3739 98.5704C43.3555 98.0297 42.2848 97.4599 41.9945 97.304L41.4666 97.0205L40.1174 95.0623C39.3753 93.9852 38.7735 93.0995 38.78 93.0941C38.7864 93.0883 41.395 92.1169 44.5768 90.9348C47.7586 89.7527 50.4775 88.7421 50.6188 88.6892L50.8756 88.5929V94.2964V100L50.7539 99.9943C50.687 99.9914 49.6407 99.8907 48.4288 99.7709V99.7712ZM49.1142 97.1351C49.1279 97.0721 49.1653 96.6194 49.1972 96.1292C49.2291 95.639 49.269 95.1093 49.2859 94.9521L49.3165 94.6662L48.2713 94.0662L47.226 93.4662L45.3607 93.0706C44.3348 92.8531 43.4933 92.6787 43.4907 92.6832C43.4763 92.7077 44.6931 97.0962 44.7217 97.1231C44.7594 97.1586 46.8351 97.2291 48.2117 97.2417C49.0815 97.2496 49.0895 97.2489 49.1142 97.1351H49.1142Z" fill="#FAD100"/>
<path fill-rule="evenodd" clip-rule="evenodd" d="M50.6036 61.4675C50.5233 61.2991 48.4623 57.1422 46.0236 52.2299L41.5895 43.2984L41.3817 39.517C41.2674 37.4372 41.1506 35.6936 41.122 35.6424C41.0935 35.5912 39.7307 34.9419 38.0937 34.1996C36.4567 33.4572 35.1081 32.8184 35.0968 32.7801C35.0691 32.6852 50.6857 9.60723 50.8025 9.57053C50.8753 9.54767 50.8954 15.1997 50.8954 35.6575C50.8954 52.1655 50.8686 61.7736 50.8226 61.7736C50.7825 61.7736 50.684 61.6358 50.6036 61.4675H50.6036Z" fill="#FAD100"/>
<path fill-rule="evenodd" clip-rule="evenodd" d="M30.9674 82.1721C27.4287 79.2512 24.464 76.7981 24.3792 76.7206L24.2249 76.5799L23.1809 70.1433C22.6067 66.6032 22.1473 63.6968 22.1601 63.6846C22.173 63.6725 22.2114 63.689 22.2455 63.7211C22.2798 63.7534 23.6747 65.6541 25.3454 67.945L28.3832 72.1104L31.7356 73.9948C33.5795 75.0313 35.1434 75.9147 35.2111 75.9579C35.3256 76.0312 35.406 76.4248 36.3812 81.6877C36.9571 84.7959 37.4223 87.3713 37.4148 87.4109C37.4071 87.452 34.6444 85.2073 30.9674 82.1721V82.1721Z" fill="#FAD100"/>
<path fill-rule="evenodd" clip-rule="evenodd" d="M83.6063 59.1913C83.7213 59.0442 84.7388 57.6977 85.8676 56.1991C91.0128 49.3678 92.7542 47.0392 92.7542 46.9905C92.7542 46.9021 83.0898 28.2674 83.035 28.2502C82.9906 28.236 75.2152 32.6676 75.1199 32.7611C75.1003 32.7804 74.7232 34.2827 74.2819 36.0995L73.4795 39.403L70.6132 41.6482L67.7469 43.8934L64.7601 49.626C63.1174 52.779 61.7735 55.3816 61.7737 55.4096C61.7737 55.4376 65.0161 56.0653 68.9785 56.8045C72.9409 57.5437 77.7622 58.4433 79.6925 58.8035C81.6228 59.1639 83.246 59.4587 83.2997 59.4587C83.3549 59.4587 83.4882 59.3423 83.6063 59.1913V59.1913Z" fill="#FAD100"/>
<path fill-rule="evenodd" clip-rule="evenodd" d="M88.4729 32.3036C88.7951 31.6781 92.4205 24.678 96.5293 16.7478C100.638 8.81773 104 2.308 104 2.28177C104 2.24111 88.8119 0.00376099 88.51 0C88.4438 0 85.8395 2.04759 81.7941 5.28251L75.1864 10.5664L66.932 7.99189C62.3921 6.57586 58.6703 5.42425 58.6613 5.43269C58.6331 5.45912 75.5854 30.5051 75.6422 30.5206C75.6719 30.5287 77.4593 29.474 79.6142 28.1769C81.769 26.8798 83.5433 25.8185 83.5569 25.8185C83.5706 25.8185 84.5202 27.5243 85.6673 29.6092C86.8145 31.6942 87.7832 33.4092 87.82 33.4204C87.862 33.4331 88.1066 33.0147 88.4729 32.3036V32.3036Z" fill="#FAD100"/>
<path fill-rule="evenodd" clip-rule="evenodd" d="M71.725 74.7253C73.9154 61.6825 74.231 59.734 74.158 59.7022C74.0555 59.6575 61.5804 57.0609 61.4078 57.0483C61.2963 57.0402 61.0932 57.4134 59.2239 61.063C57.3446 64.7322 57.1608 65.1139 57.138 65.3969L57.1129 65.7073L63.1171 77.6959C66.4195 84.2897 69.1409 89.6907 69.1648 89.6982C69.1887 89.7057 70.3408 82.9679 71.725 74.7253H71.725Z" fill="#FAD100"/>
<path fill-rule="evenodd" clip-rule="evenodd" d="M67.8836 90.6079C67.8836 90.5285 57.2268 69.3121 57.1794 69.2972C57.1423 69.2855 57.1244 72.0948 57.1244 77.9596V86.6393L62.4562 88.6212C65.3886 89.7113 67.8094 90.6108 67.8358 90.6201C67.8621 90.6294 67.8836 90.6245 67.8836 90.6079L67.8836 90.6079Z" fill="#FAD100"/>
<path fill-rule="evenodd" clip-rule="evenodd" d="M59.5711 99.7712L61.7746 99.5534L63.6261 98.5704C64.6445 98.0297 65.7152 97.4599 66.0055 97.304L66.5334 97.0205L67.8826 95.0623C68.6246 93.9852 69.2265 93.0995 69.22 93.0941C69.2139 93.0883 66.605 92.1169 63.4232 90.9348C60.2413 89.7527 57.5225 88.7421 57.3812 88.6892L57.1244 88.5929V94.2964V100L57.2461 99.9943C57.313 99.9914 58.3593 99.8907 59.5711 99.7709V99.7712ZM58.8858 97.1351C58.8721 97.0721 58.8347 96.6194 58.8028 96.1292C58.7709 95.639 58.731 95.1093 58.7141 94.9521L58.6835 94.6662L59.7287 94.0662L60.7739 93.4662L62.6393 93.0706C63.6652 92.8531 64.5067 92.6787 64.5093 92.6832C64.5237 92.7077 63.3069 97.0962 63.2783 97.1231C63.2406 97.1586 61.1649 97.2291 59.7883 97.2417C58.9185 97.2496 58.9105 97.2489 58.8858 97.1351H58.8858Z" fill="#FAD100"/>
<path fill-rule="evenodd" clip-rule="evenodd" d="M57.3964 61.4675C57.4767 61.2991 59.5377 57.1422 61.9764 52.2299L66.4105 43.2984L66.6183 39.517C66.7325 37.4372 66.8494 35.6936 66.878 35.6424C66.9065 35.5912 68.2692 34.9419 69.9063 34.1996C71.5433 33.4572 72.8919 32.8184 72.9032 32.7801C72.9309 32.6852 57.3143 9.60723 57.1975 9.57053C57.1247 9.54767 57.1046 15.1997 57.1046 35.6575C57.1046 52.1655 57.1313 61.7736 57.1774 61.7736C57.2175 61.7736 57.316 61.6358 57.3963 61.4675H57.3964Z" fill="#FAD100"/>
<path fill-rule="evenodd" clip-rule="evenodd" d="M77.0326 82.1721C80.5713 79.2512 83.536 76.7981 83.6208 76.7206L83.7751 76.5799L84.8191 70.1433C85.3933 66.6032 85.8527 63.6968 85.8399 63.6846C85.827 63.6725 85.7886 63.689 85.7545 63.7211C85.7202 63.7534 84.3253 65.6541 82.6546 67.945L79.6168 72.1104L76.2644 73.9948C74.4205 75.0313 72.8566 75.9147 72.7889 75.9579C72.6744 76.0312 72.594 76.4248 71.6188 81.6877C71.0429 84.7959 70.5777 87.3713 70.5852 87.4109C70.5929 87.452 73.3556 85.2073 77.0326 82.1721V82.1721Z" fill="#FAD100"/>
</svg>
