<svg width="108" height="99" viewBox="0 0 108 99" fill="none" xmlns="http://www.w3.org/2000/svg">
<path fill-rule="evenodd" clip-rule="evenodd" d="M30.3149 47.353C30.223 47.2353 29.4089 46.1582 28.5059 44.9592C24.3898 39.4942 22.9966 37.6314 22.9966 37.5924C22.9966 37.5217 30.7282 22.6139 30.772 22.6002C30.8075 22.5888 37.0278 26.1341 37.1041 26.2089C37.1197 26.2243 37.4214 27.4261 37.7745 28.8796L38.4164 31.5224L40.7095 33.3185L43.0025 35.1147L45.3919 39.7008C46.7061 42.2232 47.7812 44.3053 47.781 44.3277C47.781 44.35 45.1871 44.8523 42.0172 45.4436C38.8473 46.0349 34.9903 46.7546 33.446 47.0428C31.9018 47.3311 30.6032 47.5669 30.5602 47.5669C30.5161 47.5669 30.4094 47.4739 30.3149 47.353V47.353Z" fill="#FAD100"/>
<path fill-rule="evenodd" clip-rule="evenodd" d="M26.4217 25.8429C26.164 25.3424 23.2636 19.7424 19.9765 13.3983C16.6894 7.05418 14 1.8464 14 1.82542C14 1.79289 26.1505 0.00300879 26.392 0C26.445 0 28.5284 1.63807 31.7647 4.22601L37.0509 8.45311L43.6544 6.39351C47.2863 5.26069 50.2638 4.3394 50.2709 4.34615C50.2935 4.36729 36.7317 24.404 36.6863 24.4164C36.6625 24.423 35.2326 23.5792 33.5087 22.5415C31.7848 21.5038 30.3654 20.6548 30.3545 20.6548C30.3435 20.6548 29.5838 22.0194 28.6661 23.6874C27.7484 25.3553 26.9734 26.7273 26.944 26.7363C26.9104 26.7465 26.7147 26.4117 26.4217 25.8429V25.8429Z" fill="#FAD100"/>
<path fill-rule="evenodd" clip-rule="evenodd" d="M39.82 59.7802C38.0677 49.346 37.8152 47.7872 37.8736 47.7618C37.9556 47.726 47.9357 45.6487 48.0737 45.6387C48.163 45.6322 48.3254 45.9308 49.8209 48.8504C51.3244 51.7857 51.4713 52.0911 51.4896 52.3175L51.5097 52.5658L46.7063 62.1567C44.0644 67.4318 41.8873 71.7526 41.8682 71.7586C41.8491 71.7646 40.9274 66.3743 39.82 59.7802H39.82Z" fill="#FAD100"/>
<path fill-rule="evenodd" clip-rule="evenodd" d="M42.8931 72.4863C42.8931 72.4228 51.4185 55.4497 51.4564 55.4377C51.4862 55.4284 51.5005 57.6759 51.5005 62.3677V69.3115L47.235 70.897C44.8891 71.769 42.9524 72.4886 42.9314 72.4961C42.9103 72.5035 42.8931 72.4996 42.8931 72.4863L42.8931 72.4863Z" fill="#FAD100"/>
<path fill-rule="evenodd" clip-rule="evenodd" d="M49.5431 79.8169L47.7804 79.6427L46.2991 78.8563C45.4845 78.4238 44.6279 77.9679 44.3956 77.8432L43.9733 77.6164L42.894 76.0498C42.3003 75.1882 41.8188 74.4796 41.824 74.4752C41.8292 74.4706 43.9161 73.6935 46.4615 72.7478C49.007 71.8021 51.1821 70.9937 51.295 70.9513L51.5005 70.8743V75.4371V80L51.4032 79.9954C51.3497 79.9931 50.5126 79.9126 49.5431 79.8167V79.8169ZM50.0914 77.7081C50.1024 77.6577 50.1323 77.2955 50.1578 76.9034C50.1833 76.5112 50.2153 76.0874 50.2287 75.9616L50.2532 75.733L49.4171 75.253L48.5809 74.773L47.0886 74.4565C46.2679 74.2824 45.5947 74.143 45.5926 74.1466C45.5811 74.1662 46.5546 77.6769 46.5774 77.6985C46.6075 77.7268 48.2681 77.7833 49.3694 77.7933C50.0652 77.7997 50.0716 77.7991 50.0914 77.7081H50.0914Z" fill="#FAD100"/>
<path fill-rule="evenodd" clip-rule="evenodd" d="M51.2829 49.174C51.2186 49.0393 49.5698 45.7137 47.6189 41.7839L44.0716 34.6387L43.9054 31.6136C43.814 29.9497 43.7205 28.5549 43.6976 28.5139C43.6748 28.473 42.5846 27.9535 41.275 27.3597C39.9653 26.7658 38.8865 26.2547 38.8775 26.224C38.8552 26.1481 51.3485 7.68578 51.442 7.65643C51.5003 7.63813 51.5163 12.1598 51.5163 28.526C51.5163 41.7324 51.4949 49.4188 51.4581 49.4188C51.426 49.4188 51.3472 49.3087 51.2829 49.174H51.2829Z" fill="#FAD100"/>
<path fill-rule="evenodd" clip-rule="evenodd" d="M35.5739 65.7377C32.743 63.401 30.3712 61.4385 30.3034 61.3765L30.1799 61.2639L29.3447 56.1147C28.8854 53.2826 28.5179 50.9574 28.5281 50.9477C28.5384 50.938 28.5691 50.9512 28.5965 50.9769C28.6238 51.0027 29.7398 52.5233 31.0764 54.3561L33.5065 57.6883L36.1885 59.1959C37.6636 60.025 38.9148 60.7318 38.9689 60.7664C39.0605 60.825 39.1248 61.1398 39.905 65.3502C40.3657 67.8367 40.7378 69.897 40.7319 69.9287C40.7257 69.9616 38.5156 68.1658 35.5739 65.7377V65.7377Z" fill="#FAD100"/>
<path fill-rule="evenodd" clip-rule="evenodd" d="M77.6851 47.353C77.777 47.2353 78.5911 46.1582 79.4941 44.9592C83.6102 39.4942 85.0034 37.6314 85.0034 37.5924C85.0034 37.5217 77.2718 22.6139 77.228 22.6002C77.1925 22.5888 70.9722 26.1341 70.8959 26.2089C70.8803 26.2243 70.5786 27.4261 70.2255 28.8796L69.5836 31.5224L67.2905 33.3185L64.9975 35.1147L62.6081 39.7008C61.2939 42.2232 60.2188 44.3053 60.219 44.3277C60.219 44.35 62.8129 44.8523 65.9828 45.4436C69.1527 46.0349 73.0097 46.7546 74.554 47.0428C76.0982 47.3311 77.3968 47.5669 77.4398 47.5669C77.4839 47.5669 77.5906 47.4739 77.6851 47.353V47.353Z" fill="#FAD100"/>
<path fill-rule="evenodd" clip-rule="evenodd" d="M81.5783 25.8429C81.836 25.3424 84.7363 19.7424 88.0234 13.3983C91.3105 7.05418 94 1.8464 94 1.82542C94 1.79289 81.8495 0.00300879 81.608 0C81.555 0 79.4716 1.63807 76.2353 4.22601L70.9491 8.45311L64.3456 6.39351C60.7136 5.26069 57.7362 4.3394 57.729 4.34615C57.7064 4.36729 71.2683 24.404 71.3137 24.4164C71.3375 24.423 72.7674 23.5792 74.4913 22.5415C76.2152 21.5038 77.6346 20.6548 77.6455 20.6548C77.6564 20.6548 78.4162 22.0194 79.3339 23.6874C80.2516 25.3553 81.0265 26.7273 81.056 26.7363C81.0896 26.7465 81.2852 26.4117 81.5783 25.8429V25.8429Z" fill="#FAD100"/>
<path fill-rule="evenodd" clip-rule="evenodd" d="M68.18 59.7802C69.9323 49.346 70.1848 47.7872 70.1264 47.7618C70.0444 47.726 60.0643 45.6487 59.9262 45.6387C59.837 45.6322 59.6746 45.9308 58.1791 48.8504C56.6756 51.7857 56.5286 52.0911 56.5103 52.3175L56.4903 52.5658L61.2937 62.1567C63.9356 67.4318 66.1127 71.7526 66.1318 71.7586C66.1509 71.7646 67.0726 66.3743 68.18 59.7802H68.18Z" fill="#FAD100"/>
<path fill-rule="evenodd" clip-rule="evenodd" d="M65.1069 72.4863C65.1069 72.4228 56.5814 55.4497 56.5435 55.4377C56.5138 55.4284 56.4995 57.6759 56.4995 62.3677V69.3115L60.7649 70.897C63.1109 71.769 65.0475 72.4886 65.0686 72.4961C65.0897 72.5035 65.1069 72.4996 65.1069 72.4863L65.1069 72.4863Z" fill="#FAD100"/>
<path fill-rule="evenodd" clip-rule="evenodd" d="M58.4569 79.8169L60.2196 79.6427L61.7009 78.8563C62.5156 78.4238 63.3721 77.9679 63.6044 77.8432L64.0267 77.6164L65.1061 76.0498C65.6997 75.1882 66.1812 74.4796 66.176 74.4752C66.1711 74.4706 64.0839 73.6935 61.5385 72.7478C58.993 71.8021 56.818 70.9937 56.705 70.9513L56.4995 70.8743V75.4371V80L56.5968 79.9954C56.6503 79.9931 57.4874 79.9126 58.4569 79.8167V79.8169ZM57.9086 77.7081C57.8976 77.6577 57.8678 77.2955 57.8422 76.9034C57.8167 76.5112 57.7847 76.0874 57.7713 75.9616L57.7468 75.733L58.583 75.253L59.4191 74.773L60.9114 74.4565C61.7321 74.2824 62.4053 74.143 62.4074 74.1466C62.4189 74.1662 61.4455 77.6769 61.4226 77.6985C61.3925 77.7268 59.7319 77.7833 58.6306 77.7933C57.9348 77.7997 57.9284 77.7991 57.9086 77.7081H57.9086Z" fill="#FAD100"/>
<path fill-rule="evenodd" clip-rule="evenodd" d="M56.7171 49.174C56.7813 49.0393 58.4302 45.7137 60.3811 41.7839L63.9284 34.6387L64.0946 31.6136C64.186 29.9497 64.2795 28.5549 64.3024 28.5139C64.3252 28.473 65.4154 27.9535 66.725 27.3597C68.0347 26.7658 69.1135 26.2547 69.1225 26.224C69.1447 26.1481 56.6514 7.68578 56.558 7.65643C56.4997 7.63813 56.4836 12.1598 56.4836 28.526C56.4836 41.7324 56.5051 49.4188 56.5419 49.4188C56.574 49.4188 56.6528 49.3087 56.7171 49.174H56.7171Z" fill="#FAD100"/>
<path fill-rule="evenodd" clip-rule="evenodd" d="M72.4261 65.7377C75.2571 63.401 77.6288 61.4385 77.6967 61.3765L77.8201 61.2639L78.6553 56.1147C79.1147 53.2826 79.4821 50.9574 79.4719 50.9477C79.4616 50.938 79.4309 50.9512 79.4036 50.9769C79.3762 51.0027 78.2603 52.5233 76.9237 54.3561L74.4935 57.6883L71.8115 59.1959C70.3364 60.025 69.0853 60.7318 69.0312 60.7664C68.9395 60.825 68.8752 61.1398 68.095 65.3502C67.6343 67.8367 67.2622 69.897 67.2682 69.9287C67.2744 69.9616 69.4845 68.1658 72.4261 65.7377V65.7377Z" fill="#FAD100"/>
<path d="M7.23633 92.9863C6.98633 93.3418 6.59375 93.6191 6.05859 93.8184C5.52734 94.0176 4.93164 94.1172 4.27148 94.1172C3.60352 94.1172 3.00977 93.957 2.49023 93.6367C1.9707 93.3164 1.56836 92.8633 1.2832 92.2773C0.998047 91.6914 0.853516 91.0195 0.849609 90.2617V89.1836C0.849609 88 1.14844 87.0664 1.74609 86.3828C2.34375 85.6953 3.14648 85.3516 4.1543 85.3516C5.0332 85.3516 5.74023 85.5762 6.27539 86.0254C6.81055 86.4707 7.12891 87.0859 7.23047 87.8711H6.50977C6.4043 87.2461 6.14844 86.7734 5.74219 86.4531C5.33984 86.1289 4.8125 85.9668 4.16016 85.9668C3.36328 85.9668 2.73242 86.25 2.26758 86.8164C1.80273 87.3828 1.57031 88.1816 1.57031 89.2129V90.2207C1.57031 90.8691 1.67969 91.4434 1.89844 91.9434C2.12109 92.4395 2.4375 92.8242 2.84766 93.0977C3.26172 93.3711 3.73633 93.5078 4.27148 93.5078C4.89258 93.5078 5.42578 93.4102 5.87109 93.2148C6.16016 93.0859 6.375 92.9355 6.51562 92.7637V90.5605H4.22461V89.9512H7.23633V92.9863ZM13.9922 89.9102H10.002V93.3906H14.5898V94H9.28125V85.4688H14.5605V86.084H10.002V89.3008H13.9922V89.9102ZM22.4648 94H21.7441L16.8398 86.6992V94H16.1133V85.4688H16.8398L21.75 92.7754V85.4688H22.4648V94ZM30.2461 86.084H27.3223V94H26.6016V86.084H23.6836V85.4688H30.2461V86.084ZM36.3398 89.9102H32.3496V93.3906H36.9375V94H31.6289V85.4688H36.9082V86.084H32.3496V89.3008H36.3398V89.9102ZM41.3789 94V85.4688H43.7637C44.4629 85.4688 45.0898 85.6289 45.6445 85.9492C46.1992 86.2656 46.6309 86.7207 46.9395 87.3145C47.252 87.9082 47.4082 88.584 47.4082 89.3418V90.127C47.4082 90.8887 47.2539 91.5645 46.9453 92.1543C46.6367 92.7441 46.2012 93.1992 45.6387 93.5195C45.0801 93.8398 44.4375 94 43.7109 94H41.3789ZM42.0996 86.084V93.3906H43.7168C44.6152 93.3906 45.3359 93.0938 45.8789 92.5C46.4219 91.9023 46.6934 91.0957 46.6934 90.0801V89.3301C46.6934 88.3496 46.4258 87.5645 45.8906 86.9746C45.3555 86.3848 44.6504 86.0879 43.7754 86.084H42.0996ZM50.1211 94H49.4004V85.4688H50.1211V94ZM60.9141 86.084H57.9902V94H57.2695V86.084H54.3516V85.4688H60.9141V86.084ZM68.4375 90.1973C68.4375 90.9824 68.3008 91.6719 68.0273 92.2656C67.7578 92.8594 67.3711 93.3164 66.8672 93.6367C66.3633 93.957 65.7812 94.1172 65.1211 94.1172C64.125 94.1172 63.3203 93.7617 62.707 93.0508C62.0938 92.3359 61.7871 91.373 61.7871 90.1621V89.2832C61.7871 88.5059 61.9238 87.8184 62.1973 87.2207C62.4746 86.6191 62.8652 86.1582 63.3691 85.8379C63.873 85.5137 64.4531 85.3516 65.1094 85.3516C65.7656 85.3516 66.3438 85.5098 66.8438 85.8262C67.3477 86.1426 67.7363 86.5898 68.0098 87.168C68.2832 87.7461 68.4258 88.416 68.4375 89.1777V90.1973ZM67.7168 89.2715C67.7168 88.2441 67.4844 87.4395 67.0195 86.8574C66.5547 86.2754 65.918 85.9844 65.1094 85.9844C64.3164 85.9844 63.6836 86.2773 63.2109 86.8633C62.7422 87.4453 62.5078 88.2598 62.5078 89.3066V90.1973C62.5078 91.209 62.7422 92.0117 63.2109 92.6055C63.6797 93.1953 64.3164 93.4902 65.1211 93.4902C65.9375 93.4902 66.5742 93.1992 67.0312 92.6172C67.4883 92.0312 67.7168 91.2168 67.7168 90.1738V89.2715ZM75.082 91.9023C75.082 91.4297 74.916 91.0566 74.584 90.7832C74.252 90.5059 73.6445 90.2441 72.7617 89.998C71.8789 89.748 71.2344 89.4766 70.8281 89.1836C70.25 88.7695 69.9609 88.2266 69.9609 87.5547C69.9609 86.9023 70.2285 86.373 70.7637 85.9668C71.3027 85.5566 71.9902 85.3516 72.8262 85.3516C73.3926 85.3516 73.8984 85.4609 74.3438 85.6797C74.793 85.8984 75.1406 86.2031 75.3867 86.5938C75.6328 86.9844 75.7559 87.4199 75.7559 87.9004H75.0293C75.0293 87.3184 74.8301 86.8516 74.4316 86.5C74.0332 86.1445 73.498 85.9668 72.8262 85.9668C72.1738 85.9668 71.6543 86.1133 71.2676 86.4062C70.8809 86.6953 70.6875 87.0742 70.6875 87.543C70.6875 87.9766 70.8613 88.3301 71.209 88.6035C71.5566 88.877 72.1133 89.1191 72.8789 89.3301C73.6445 89.5371 74.2246 89.7539 74.6191 89.9805C75.0137 90.2031 75.3105 90.4707 75.5098 90.7832C75.709 91.0957 75.8086 91.4648 75.8086 91.8906C75.8086 92.5625 75.5391 93.1016 75 93.5078C74.4648 93.9141 73.7578 94.1172 72.8789 94.1172C72.2773 94.1172 71.7246 94.0098 71.2207 93.7949C70.7207 93.5801 70.3398 93.2793 70.0781 92.8926C69.8203 92.5059 69.6914 92.0625 69.6914 91.5625H70.4121C70.4121 92.1641 70.6367 92.6387 71.0859 92.9863C71.5352 93.334 72.1328 93.5078 72.8789 93.5078C73.543 93.5078 74.0762 93.3613 74.4785 93.0684C74.8809 92.7754 75.082 92.3867 75.082 91.9023ZM83.4082 91.3398C83.3105 92.2383 82.9883 92.9258 82.4414 93.4023C81.8984 93.8789 81.1738 94.1172 80.2676 94.1172C79.6348 94.1172 79.0742 93.959 78.5859 93.6426C78.1016 93.3262 77.7266 92.8789 77.4609 92.3008C77.1953 91.7188 77.0605 91.0547 77.0566 90.3086V89.2012C77.0566 88.4434 77.1895 87.7715 77.4551 87.1855C77.7207 86.5996 78.1016 86.1484 78.5977 85.832C79.0977 85.5117 79.6719 85.3516 80.3203 85.3516C81.2344 85.3516 81.9551 85.5996 82.4824 86.0957C83.0137 86.5879 83.3223 87.2695 83.4082 88.1406H82.6816C82.502 86.6914 81.7148 85.9668 80.3203 85.9668C79.5469 85.9668 78.9297 86.2559 78.4688 86.834C78.0117 87.4121 77.7832 88.2109 77.7832 89.2305V90.2734C77.7832 91.2578 78.0059 92.043 78.4512 92.6289C78.9004 93.2148 79.5059 93.5078 80.2676 93.5078C81.0215 93.5078 81.5898 93.3281 81.9727 92.9688C82.3555 92.6055 82.5918 92.0625 82.6816 91.3398H83.4082ZM89.7656 91.6094H85.8926L85.0137 94H84.2578L87.4863 85.4688H88.1719L91.4004 94H90.6504L89.7656 91.6094ZM86.1152 90.9941H89.5371L87.8262 86.3477L86.1152 90.9941ZM99.0117 94H98.291L93.3867 86.6992V94H92.6602V85.4688H93.3867L98.2969 92.7754V85.4688H99.0117V94ZM105.891 91.6094H102.018L101.139 94H100.383L103.611 85.4688H104.297L107.525 94H106.775L105.891 91.6094ZM102.24 90.9941H105.662L103.951 86.3477L102.24 90.9941Z" fill="black"/>
</svg>
